<?xml version="1.0" encoding="UTF-8"?>
<!DOCTYPE svg PUBLIC "-//W3C//DTD SVG 1.1//EN" "http://www.w3.org/Graphics/SVG/1.1/DTD/svg11.dtd">
<!-- Creator: CorelDRAW 2020 (64 Bit) -->
<svg xmlns="http://www.w3.org/2000/svg" xml:space="preserve" width="99.1605mm" height="63.9657mm" version="1.1" style="shape-rendering:geometricPrecision; text-rendering:geometricPrecision; image-rendering:optimizeQuality; fill-rule:evenodd; clip-rule:evenodd"
viewBox="0 0 8415.62 5428.68"
 xmlns:xlink="http://www.w3.org/1999/xlink"
 xmlns:xodm="http://www.corel.com/coreldraw/odm/2003">
 <defs>
  <style type="text/css">
   <![CDATA[
    .fil0 {fill:#4D4D4D;fill-rule:nonzero}
    .fil1 {fill:#B2C851;fill-rule:nonzero}
   ]]>
  </style>
    <clipPath id="id0">
     <rect width="4945.85" height="5428.68"/>
    </clipPath>
     <clipPath id="id1">
      <path d="M3698.75 1438.61l4716.86 0 0 968.6 -4716.86 0 0 -968.6z"/>
     </clipPath>
 </defs>
 <g id="Camada_x0020_1">
  <metadata id="CorelCorpID_0Corel-Layer"/>
  <g id="_2321883999648">
   <g style="clip-path:url(#id0)">
    <image x="-0" y="0" width="4945.86" height="5428.68" xlink:href="agenda facil logo_Images\agenda facil logo_ImgID1.png"/>
   </g>
   <polygon class="fil0" points="5525.19,2683.65 5497.87,2683.65 5497.87,2394.53 5684.19,2394.53 5684.19,2417.81 5525.19,2417.81 5525.19,2522.22 5669.74,2522.22 5669.74,2545.52 5525.19,2545.52 "/>
   <path id="1" class="fil0" d="M5725.56 2683.65l-28.11 0 113.64 -289.12 30.92 0 110.83 289.12 -28.11 0 -33.33 -90.75 -131.71 0 -34.13 90.75zm99.98 -265.83l-56.62 151.8 113.24 0 -56.62 -151.8zm-2.81 -45.77l-20.48 0 44.57 -55.82 30.92 0 -55.01 55.82z"/>
   <path id="2" class="fil0" d="M6225.5 2478.45l-28.11 0c-10.44,-45.51 -40.83,-68.27 -91.16,-68.27 -32.93,0 -58.36,12.86 -76.3,38.56 -15.79,22.75 -23.69,52.6 -23.69,89.54 0,36.94 7.23,66.66 21.68,89.15 17.4,27.04 44.3,40.56 80.71,40.56 24.09,0 44.17,-7.49 60.23,-22.49 15.26,-13.92 25.71,-32.93 31.33,-57.02l28.51 0c-15.79,68.53 -57.55,102.8 -125.28,102.8 -42.03,0 -73.89,-15.12 -95.57,-45.38 -19.27,-26.77 -28.91,-62.37 -28.91,-106.81 0,-52.47 12.86,-91.69 38.56,-117.66 23.02,-23.02 55.01,-34.53 95.97,-34.53 30.25,0 55.35,7.9 75.3,23.7 19.94,15.79 32.19,38.41 36.74,67.86z"/>
   <polygon id="3" class="fil0" points="6318.65,2683.65 6291.35,2683.65 6291.35,2394.53 6318.65,2394.53 "/>
   <polygon id="4" class="fil0" points="6575.65,2683.65 6393.35,2683.65 6393.35,2394.53 6420.65,2394.53 6420.65,2660.36 6575.65,2660.36 "/>
   <g>
    <g style="clip-path:url(#id1)">
     <image x="3698.75" y="1438.61" width="4716.86" height="968.6" xlink:href="agenda facil logo_Images\agenda facil logo_ImgID2.png"/>
    </g>
   </g>
   <path class="fil1" d="M4343.97 2215.29l181.86 0 0 -27.02 -328.38 -709.75 -80.01 0 -327.34 709.75 0 27.02 181.86 0 42.6 -91.45 286.81 0 42.6 91.45zm-102.88 -250.44l-166.27 0 82.09 -191.21 84.17 191.21z"/>
   <path id="1" class="fil1" d="M4560.11 1851.59c1.04,248.36 188.09,372.02 373.07,372.02 134.05,0 272.26,-58.19 324.22,-209.91 24.94,-70.66 24.94,-140.29 20.78,-213.03l-343.96 0 0 161.07 154.83 0c-33.25,69.62 -81.05,89.37 -155.87,89.37 -110.15,0 -180.81,-78.98 -180.81,-199.52 0,-111.19 63.39,-202.64 180.81,-202.64 73.78,0 121.58,24.94 151.72,87.29l182.89 0c-35.33,-180.81 -188.09,-256.67 -334.61,-257.71 -184.97,0 -372.02,124.7 -373.07,373.07z"/>
   <path id="2" class="fil1" d="M5879.86 1487.87c-170.42,0 -285.78,0 -454.12,0 0,241.09 0,484.25 0,727.42 168.34,0 293.04,0 463.47,0 0,-55.08 0,-111.19 0,-165.23 -109.12,0 -171.47,0 -278.5,0 0,-43.64 0,-85.21 0,-127.81l247.32 0c0,-55.08 0,-110.15 0,-165.23l-247.32 0 0 -102.88c107.03,0 161.06,0 269.14,0 0,-56.12 0,-112.23 0,-166.27z"/>
   <path id="3" class="fil1" d="M6608.3 2215.29l66.51 0 0 -727.42c-63.39,0 -126.78,0 -190.17,0l0 355.91 -367.87 -359.03 -67.54 0 0 730.53c63.39,0 127.81,0 192.24,0l0 -357.48 366.82 357.48z"/>
   <path id="4" class="fil1" d="M7134.12 1487.87l-274.34 0 0 727.42 274.34 0c473.86,-2.08 473.86,-725.34 0,-727.42zm-88.33 169.39l88.33 0c231.73,0 231.73,388.65 0,388.65l-88.33 0 0 -388.65z"/>
   <path id="5" class="fil1" d="M8101.58 2215.29l181.86 0 0 -27.02 -328.38 -709.75 -80.01 0 -327.34 709.75 0 27.02 181.86 0 42.6 -91.45 286.81 0 42.6 91.45zm-102.88 -250.44l-166.27 0 82.09 -191.21 84.17 191.21z"/>
  </g>
 </g>
</svg>
