<?xml version="1.0" encoding="UTF-8"?>
<!DOCTYPE svg PUBLIC "-//W3C//DTD SVG 1.1//EN" "http://www.w3.org/Graphics/SVG/1.1/DTD/svg11.dtd">
<!-- Creator: CorelDRAW 2020 (64 Bit) -->
<svg xmlns="http://www.w3.org/2000/svg" xml:space="preserve" width="124.071mm" height="47.8915mm" version="1.1" style="shape-rendering:geometricPrecision; text-rendering:geometricPrecision; image-rendering:optimizeQuality; fill-rule:evenodd; clip-rule:evenodd"
viewBox="0 0 14177.32 5472.46"
 xmlns:xlink="http://www.w3.org/1999/xlink"
 xmlns:xodm="http://www.corel.com/coreldraw/odm/2003">
 <defs>
  <style type="text/css">
   <![CDATA[
    .fil1 {fill:black}
    .fil3 {fill:black}
    .fil2 {fill:#D0D0D0}
    .fil0 {fill:#FEFEFE}
    .fil5 {fill:black;fill-rule:nonzero}
    .fil4 {fill:white;fill-rule:nonzero}
   ]]>
  </style>
    <clipPath id="id0">
     <rect x="5115.83" y="3795.53" width="1788.44" height="1676.94"/>
    </clipPath>
    <clipPath id="id1">
     <path d="M5115.83 5472.46l1788.43 0 0 -1676.93 -1788.43 0 0 1676.93z"/>
    </clipPath>
    <clipPath id="id2">
     <rect x="5115.83" y="3795.53" width="1788.44" height="1676.94"/>
    </clipPath>
 </defs>
 <g id="Camada_x0020_1">
  <metadata id="CorelCorpID_0Corel-Layer"/>
  <g id="_2728730150480">
   <g>
    <polygon class="fil0" points="7255.97,2951.67 7255.97,3076.96 7150.55,3076.96 7150.55,4580.65 7255.97,4580.65 7255.97,4705.96 7361.39,4705.96 7361.39,4831.27 13264.92,4831.27 13264.92,4705.96 13370.35,4705.96 13370.35,4580.65 13475.77,4580.65 13475.77,3076.96 13370.35,3076.96 13370.35,2951.67 13264.92,2951.67 13264.92,2826.35 7361.39,2826.35 7361.39,2951.67 "/>
    <polygon class="fil1" points="13370.35,2826.35 13370.35,2701.04 7255.97,2701.04 7255.97,2826.35 "/>
    <polygon class="fil1" points="13370.35,4831.27 7255.97,4831.27 7255.97,4956.57 13370.35,4956.57 "/>
    <polygon class="fil1" points="7150.55,4705.96 7150.55,2951.67 7045.14,2951.67 7045.14,4705.96 "/>
    <polygon class="fil1" points="13475.77,2951.67 13475.77,4705.96 13581.18,4705.96 13581.18,2951.67 "/>
    <polygon class="fil1" points="7255.97,2951.67 7255.97,2826.35 7150.55,2826.35 7150.55,2951.67 "/>
    <polygon class="fil2" points="7361.39,2826.35 7255.97,2826.35 7255.97,2951.67 7361.39,2951.67 "/>
    <polygon class="fil2" points="13370.35,2951.67 13370.35,2826.35 13264.92,2826.35 13264.92,2951.67 "/>
    <polygon class="fil1" points="13475.77,2951.67 13475.77,2826.35 13370.35,2826.35 13370.35,2951.67 "/>
    <polygon class="fil2" points="7255.97,4705.96 7255.97,4580.65 7150.55,4580.65 7150.55,4705.96 "/>
    <polygon class="fil2" points="13475.77,4705.96 13475.77,4580.65 13370.35,4580.65 13370.35,4705.96 "/>
    <polygon class="fil1" points="7255.97,4831.27 7255.97,4705.96 7150.55,4705.96 7150.55,4831.27 "/>
    <polygon class="fil2" points="7361.39,4831.27 7361.39,4705.96 7255.97,4705.96 7255.97,4831.27 "/>
    <polygon class="fil1" points="13475.77,4705.96 13370.35,4705.96 13370.35,4831.27 13475.77,4831.27 "/>
    <polygon class="fil2" points="13370.35,4831.27 13370.35,4705.96 13264.92,4705.96 13264.92,4831.27 "/>
    <polygon class="fil2" points="7255.97,2951.67 7150.55,2951.67 7150.55,3076.96 7255.97,3076.96 "/>
    <polygon class="fil2" points="13475.77,3076.96 13475.77,2951.67 13370.35,2951.67 13370.35,3076.96 "/>
   </g>
   <g>
    <path class="fil3" d="M13306.25 2296.93l-970.09 0 -89.43 190.26c-23.22,49.66 -72.48,78.82 -123.9,78.87l0 0.51 -525.79 0c-75.83,0 -137.32,-61.49 -137.32,-137.32 0,-25.29 6.84,-48.96 18.76,-69.31l1040.86 -2213.15c23.22,-49.66 72.48,-78.82 123.9,-78.87l0 -0.51 350.53 0c59.36,0 109.94,37.69 129.1,90.43l1041 2213.49c32,68.42 2.46,149.84 -65.97,181.83 -18.76,8.78 -38.51,12.91 -57.93,12.9l0 0.51 -520.4 0c-59.37,0 -109.95,-37.7 -129.11,-90.45l-84.22 -179.18zm86.59 -137.32l-1143.27 0 -126.73 269.64 -525.79 0 1046.2 -2224.53 350.53 0 1046.2 2224.53 -520.4 0 -126.73 -269.64zm-221.11 -471.87l-350.53 -744.2 -350.54 744.2 701.07 0zm-3621.27 741.51l0 -2224.53 911.38 0c305.6,0 567.15,108.76 784.67,326.27 217.51,217.5 326.26,479.06 326.26,784.66 0,307.38 -108.75,569.84 -326.26,787.35 -217.52,217.51 -479.07,326.26 -784.67,326.26l-911.38 0zm471.87 -1752.65l0 1280.78 439.51 0c176.17,0 326.73,-62.47 451.66,-187.4 124.93,-124.93 187.4,-276.39 187.4,-454.34 0,-176.17 -62.47,-326.72 -187.4,-451.66 -124.93,-124.93 -275.49,-187.39 -451.66,-187.39l-439.51 0zm-2359.36 442.21l0 1310.45 -471.87 0 0 -2224.53 388.28 0 959.92 1310.46 0 -1310.46 471.87 0 0 2224.53 -388.28 0 -959.92 -1310.45zm-876.33 -914.09l0 471.88 -1011.15 0 0 404.45 808.93 0 0 471.87 -808.93 0 0 404.46 1011.15 0 0 471.87 -1483.02 0 0 -2224.53 1483.02 0zm-1992.64 1909.06c-237.28,255.25 -527.6,382.88 -870.94,382.88 -327.16,0 -605.78,-115.05 -835.88,-345.14 -230.09,-230.09 -345.14,-508.72 -345.14,-835.88 0,-325.37 115.05,-603.09 345.14,-833.2 230.1,-230.09 508.72,-345.14 835.88,-345.14 325.37,0 603.11,115.05 833.2,345.14l-334.36 334.36c-138.41,-138.41 -304.68,-207.62 -498.84,-207.62 -195.94,0 -363.12,69.21 -501.52,207.62 -138.42,138.41 -207.64,304.7 -207.64,498.84 0,195.94 69.21,363.11 207.64,501.53 138.4,138.4 305.59,207.61 501.52,207.61 149.2,0 282.23,-41.34 399.07,-124.04l0 -347.83 -431.42 0 0 -471.87 903.29 0 0 1032.73zm-2860.88 45.83l-1143.27 0 -126.73 269.64 -525.8 0 1046.21 -2224.53 350.53 0 1046.19 2224.53 -520.4 0 -126.72 -269.64zm-221.11 -471.87l-350.53 -744.2 -350.54 744.2 701.07 0zm11243.6 -137.32l-134.41 -285.37 -134.41 285.37 268.83 0zm-3542.47 878.82l0 -2224.53c0,-75.83 61.49,-137.32 137.32,-137.32l911.38 0c170.64,0 329.95,30.77 477.93,92.29 147.9,61.5 282.53,152.91 403.82,274.21 121.27,121.27 212.7,255.9 274.2,403.8 61.52,147.98 92.29,307.3 92.29,477.94 0,171.46 -30.77,331.47 -92.29,479.95 -61.45,148.31 -152.88,283.17 -274.2,404.49 -121.3,121.28 -255.93,212.7 -403.82,274.2 -147.98,61.52 -307.29,92.29 -477.93,92.29l-911.38 0c-75.83,0 -137.32,-61.49 -137.32,-137.32zm746.5 -1615.34l0 1006.15 302.19 0c70.27,0 134.45,-12.04 192.47,-36.12 58.16,-24.12 112.21,-61.16 162.1,-111.05 50.06,-50.06 87.1,-104.16 111.05,-162.23 24.06,-58.37 36.12,-123.4 36.12,-195.03 0,-70.27 -12.04,-134.45 -36.12,-192.47 -24.12,-58.16 -61.16,-112.21 -111.05,-162.1 -49.88,-49.88 -103.93,-86.91 -162.09,-111.03 -58.03,-24.06 -122.2,-36.12 -192.48,-36.12l-302.19 0zm-2359.36 724.18l0 891.15c0,75.83 -61.49,137.32 -137.32,137.32l-471.87 0c-75.83,0 -137.32,-61.49 -137.32,-137.32l0 -2224.53c0,-75.83 61.49,-137.32 137.32,-137.32l388.28 0c48.84,0 91.72,25.5 116.06,63.92l706.54 964.55 0 -891.15c0,-75.83 61.49,-137.32 137.32,-137.32l471.87 0c75.83,0 137.32,61.49 137.32,137.32l0 2224.53c0,75.83 -61.49,137.32 -137.32,137.32l-388.28 0c-48.84,0 -91.72,-25.5 -116.06,-63.92l-706.54 -964.55zm-876.33 -1333.38l0 471.88c0,75.83 -61.49,137.32 -137.32,137.32l-873.83 0 0 129.82 671.61 0c75.83,0 137.32,61.49 137.32,137.32l0 471.87c0,75.83 -61.49,137.32 -137.32,137.32l-671.61 0 0 129.83 873.83 0c75.83,0 137.32,61.49 137.32,137.32l0 471.87c0,75.83 -61.49,137.32 -137.32,137.32l-1483.02 0c-75.83,0 -137.32,-61.49 -137.32,-137.32l0 -2224.53c0,-75.83 61.49,-137.32 137.32,-137.32l1483.02 0c75.83,0 137.32,61.49 137.32,137.32zm-2035.99 2009.17c-129.96,138.2 -274.78,242.4 -434.41,312.56 -163.04,71.68 -339.88,107.53 -530.49,107.53 -365.05,0 -676.06,-128.47 -932.96,-385.37 -127.41,-127.41 -223.54,-269.62 -288.36,-426.6 -64.66,-156.63 -97.01,-325.44 -97.01,-506.37 0,-363.25 128.47,-673.37 385.37,-930.28 127.41,-127.41 269.63,-223.55 426.6,-288.36 156.64,-64.68 325.44,-97.01 506.37,-97.01 363.25,0 673.37,128.46 930.28,385.37 53.61,53.61 53.61,140.55 0,194.16l-334.36 334.36c-13.2,13.2 -28.43,23.15 -44.68,29.85l319.7 0c75.83,0 137.32,61.49 137.32,137.32l0 1032.73c0,39.48 -16.67,75.06 -43.35,100.11zm-518.47 -1270.16c-16.25,-6.7 -31.48,-16.65 -44.68,-29.85 -56.67,-56.67 -118.03,-98.75 -183.99,-126.21 -65.94,-27.45 -138.56,-41.18 -217.76,-41.18 -80.56,0 -154.01,13.74 -220.31,41.18 -65.89,27.28 -127.28,69.36 -184.13,126.21 -56.68,56.67 -98.76,118.03 -126.22,184.01 -27.45,65.93 -41.18,138.55 -41.18,217.75 0,158.03 55.81,292.86 167.4,404.45 56.85,56.85 118.24,98.93 184.13,126.21 66.3,27.44 139.76,41.17 220.31,41.17 61.58,0 118.75,-8.2 171.45,-24.58 31.3,-9.72 61.41,-22.27 90.31,-37.64l0 -135.02 -294.1 0c-75.83,0 -137.32,-61.49 -137.32,-137.32l0 -471.87c0,-75.83 61.49,-137.32 137.32,-137.32l478.78 0zm-2522.97 1353.2l-970.09 0 -89.43 190.26c-23.22,49.66 -72.48,78.82 -123.9,78.87l0 0.51 -525.8 0c-75.83,0 -137.32,-61.49 -137.32,-137.32 0,-25.29 6.84,-48.96 18.76,-69.31l1040.87 -2213.15c23.22,-49.66 72.48,-78.82 123.9,-78.87l0 -0.51 350.53 0c59.36,0 109.94,37.69 129.1,90.43l1040.99 2213.49c32,68.42 2.46,149.84 -65.97,181.83 -18.76,8.78 -38.51,12.91 -57.93,12.9l0 0.51 -520.4 0c-59.37,0 -109.95,-37.7 -129.11,-90.47l-84.2 -179.17zm-350.63 -746.5l-134.41 -285.37 -134.41 285.37 268.83 0z"/>
    <path id="1" class="fil4" d="M13392.85 2159.62l-1143.27 0 -126.73 269.64 -525.79 0 1046.2 -2224.53 350.53 0 1046.2 2224.53 -520.4 0 -126.73 -269.64zm-221.11 -471.87l-350.53 -744.2 -350.54 744.2 701.07 0zm-3621.27 741.51l0 -2224.53 911.38 0c305.6,0 567.15,108.76 784.67,326.27 217.51,217.5 326.26,479.06 326.26,784.66 0,307.38 -108.75,569.84 -326.26,787.35 -217.52,217.51 -479.07,326.26 -784.67,326.26l-911.38 0zm471.87 -1752.65l0 1280.78 439.51 0c176.17,0 326.73,-62.47 451.66,-187.4 124.93,-124.93 187.4,-276.39 187.4,-454.34 0,-176.17 -62.47,-326.72 -187.4,-451.66 -124.93,-124.93 -275.49,-187.39 -451.66,-187.39l-439.51 0zm-2359.36 442.21l0 1310.45 -471.87 0 0 -2224.53 388.28 0 959.92 1310.46 0 -1310.46 471.87 0 0 2224.53 -388.28 0 -959.92 -1310.45zm-876.33 -914.09l0 471.88 -1011.15 0 0 404.45 808.93 0 0 471.87 -808.93 0 0 404.46 1011.15 0 0 471.87 -1483.02 0 0 -2224.53 1483.02 0zm-1992.64 1909.06c-237.28,255.25 -527.6,382.88 -870.94,382.88 -327.16,0 -605.78,-115.05 -835.88,-345.14 -230.09,-230.09 -345.14,-508.72 -345.14,-835.88 0,-325.37 115.05,-603.09 345.14,-833.2 230.1,-230.09 508.72,-345.14 835.88,-345.14 325.37,0 603.11,115.05 833.2,345.14l-334.36 334.36c-138.41,-138.41 -304.68,-207.62 -498.84,-207.62 -195.94,0 -363.12,69.21 -501.52,207.62 -138.42,138.41 -207.64,304.7 -207.64,498.84 0,195.94 69.21,363.11 207.64,501.53 138.4,138.4 305.59,207.61 501.52,207.61 149.2,0 282.23,-41.34 399.07,-124.04l0 -347.83 -431.42 0 0 -471.87 903.29 0 0 1032.73zm-2860.88 45.83l-1143.27 0 -126.73 269.64 -525.8 0 1046.21 -2224.53 350.53 0 1046.19 2224.53 -520.4 0 -126.72 -269.64zm-221.11 -471.87l-350.53 -744.2 -350.54 744.2 701.07 0z"/>
   </g>
   <g style="clip-path:url(#id0)">
   </g>
   <g style="clip-path:url(#id1)">
    <image x="5115.83" y="3795.54" width="1788.43" height="1676.93" xlink:href="agendafacil_Images\agendafacil_ImgID1.png"/>
   </g>
   <g style="clip-path:url(#id2)">
   </g>
   <path class="fil5" d="M7953.97 3466.16l0 964.28 286.12 0 0 -331.51 429.19 0 0 -220.09 -429.19 0 0 -192.59 462.2 0 0 -220.09 -748.32 0zm1845.15 -413.82l-240.73 -79.78 -147.19 247.61 203.59 0 184.33 -167.83zm-137.73 1378.11l305.38 0 -397.54 -964.28 -294.39 0 -411.3 964.28 294.38 0 57.77 -154.07 389.29 0 56.4 154.07zm-365.91 -363.16l118.3 -315.01 115.55 315.01 -233.85 0zm1612.52 -243.47l165.07 -195.34c-97.66,-104.54 -253.1,-170.57 -398.92,-170.57 -298.5,0 -518.59,207.7 -518.59,488.32 0,284.74 215.97,496.59 508.97,496.59 145.81,0 304,-72.9 408.54,-185.7l-165.07 -176.08c-66.02,67.41 -155.44,111.42 -229.72,111.42 -130.68,0 -229.71,-107.3 -229.71,-248.98 0,-141.69 99.04,-247.61 229.71,-247.61 79.78,0 169.2,50.89 229.72,127.93zm452.9 -357.66l0 964.28 286.12 0 0 -964.28 -286.12 0zm649.6 0l0 964.28 690.54 0 0 -239.35 -404.43 0 0 -724.94 -286.12 0z"/>
  </g>
 </g>
</svg>
