<?xml version="1.0" standalone="no"?>
<!DOCTYPE svg PUBLIC "-//W3C//DTD SVG 20010904//EN"
 "http://www.w3.org/TR/2001/REC-SVG-20010904/DTD/svg10.dtd">
<svg version="1.0" xmlns="http://www.w3.org/2000/svg"
 width="636.000000pt" height="1295.000000pt" viewBox="0 0 636.000000 1295.000000"
 preserveAspectRatio="xMidYMid meet">

<g transform="translate(0.000000,1295.000000) scale(0.100000,-0.100000)"
fill="#000000" stroke="none">
<path d="M960 12939 c-105 -9 -202 -29 -300 -61 -236 -76 -432 -264 -526 -503
-36 -93 -72 -249 -84 -364 -5 -57 -10 -252 -10 -433 0 -330 0 -330 -22 -349
-17 -14 -18 -17 -5 -13 15 6 17 -3 17 -92 0 -105 -7 -117 -20 -32 -5 37 -8 -7
-9 -143 -1 -189 0 -197 19 -202 19 -5 20 -14 20 -214 0 -115 -3 -212 -6 -216
-3 -3 -6 -83 -5 -179 0 -108 -3 -165 -9 -153 -5 13 -9 -31 -9 -120 0 -87 4
-132 9 -120 5 12 9 -45 9 -148 1 -110 -2 -166 -9 -162 -5 3 -10 -1 -10 -10 0
-8 7 -18 15 -21 12 -5 15 -28 15 -123 0 -65 -3 -121 -6 -124 -4 -3 -6 -84 -6
-179 1 -109 -2 -166 -8 -153 -5 13 -9 -30 -9 -120 0 -87 4 -132 9 -120 5 12 9
-45 9 -148 1 -110 -2 -166 -9 -162 -5 3 -10 -1 -10 -9 0 -8 7 -19 15 -23 13
-8 15 -432 18 -3558 3 -3204 5 -3557 19 -3625 37 -170 52 -220 104 -326 84
-174 199 -295 362 -385 71 -39 213 -91 288 -105 21 -4 44 -13 51 -19 35 -36
696 -50 2288 -50 1616 0 2308 15 2334 52 3 5 40 17 81 27 184 46 323 121 441
236 142 140 210 276 272 542 l22 93 2 3711 c3 3246 5 3713 18 3724 10 8 12 18
6 29 -11 21 -11 1359 0 1388 5 15 3 25 -6 33 -12 10 -15 171 -18 1023 -3 990
-4 1014 -24 1105 -70 305 -177 488 -358 617 -159 113 -317 165 -561 185 -154
12 -4261 11 -4404 -1z m4521 -45 c105 -18 188 -43 267 -82 95 -46 53 -58 -66
-17 -40 13 -109 32 -155 42 -77 17 -213 18 -2332 18 -2130 0 -2255 -1 -2339
-18 -49 -10 -124 -29 -168 -43 -43 -14 -93 -24 -111 -22 l-32 3 40 27 c22 14
74 38 115 52 168 56 46 54 2461 55 1996 1 2235 -1 2320 -15z m-1943 -111
c-186 -2 -490 -2 -675 0 -186 1 -34 2 337 2 371 0 523 -1 338 -2z m2298 -154
c3 -6 -5 -3 -20 6 -14 10 -26 19 -26 22 0 7 39 -17 46 -28z m65 -56 c13 -16
12 -17 -3 -4 -17 13 -22 21 -14 21 2 0 10 -8 17 -17z m-4292 -19 c20 -17 31
-35 31 -52 0 -52 31 -185 49 -216 48 -77 122 -119 239 -136 44 -6 530 -10
1296 -10 1196 0 1226 0 1277 19 70 27 122 65 153 112 29 43 56 142 56 206 0
30 7 50 24 70 l24 28 339 0 338 0 85 -27 c232 -74 366 -226 413 -468 8 -39 11
-1684 11 -5520 1 -5256 0 -5467 -17 -5529 -32 -114 -76 -190 -152 -266 -77
-76 -178 -134 -275 -157 -85 -20 -4571 -19 -4650 1 -197 51 -373 231 -425 436
-13 54 -15 660 -13 5565 l3 5505 21 55 c47 120 80 177 147 246 85 90 158 130
292 158 11 2 174 4 362 5 l341 1 31 -26z m4517 -117 c76 -115 87 -141 119
-267 26 -105 53 -416 36 -433 -5 -5 -19 -7 -32 -5 -23 3 -24 6 -26 103 -7 315
-69 556 -178 700 -30 40 -32 45 -10 25 15 -14 56 -69 91 -123z m-5830 84 c-19
-26 -43 -66 -54 -87 -23 -46 -66 -185 -81 -264 -14 -76 -31 -269 -31 -362 l0
-78 -30 0 c-18 0 -33 6 -37 15 -11 30 18 331 41 426 24 101 47 153 115 264 37
59 97 135 108 135 2 0 -12 -22 -31 -49z m2 -166 c-6 -14 -13 -23 -15 -21 -5 5
15 46 22 46 3 0 -1 -11 -7 -25z m-46 -145 l-27 -105 -3 -5440 c-2 -3926 0
-5467 8 -5538 23 -200 92 -383 186 -486 30 -34 39 -48 23 -38 -57 37 -147 186
-186 307 -8 25 -23 99 -33 165 -19 116 -19 284 -19 5500 -1 5188 0 5385 18
5520 15 116 45 235 56 223 2 -2 -9 -50 -23 -108z m5872 -91 c15 -84 16 -603
16 -5529 0 -4829 -2 -5447 -15 -5526 -20 -116 -56 -222 -104 -310 -40 -71
-129 -180 -139 -169 -3 3 15 27 40 53 79 81 145 214 181 367 l21 90 3 5350 c3
3629 0 5405 -7 5520 -5 94 -16 197 -24 230 -25 113 -26 120 -7 68 11 -28 26
-93 35 -144z m-5994 -5540 l0 -5060 -33 3 -32 3 0 5055 0 5054 25 6 c14 4 28
5 33 3 4 -2 7 -2281 7 -5064z m6158 4 l-3 -5058 -30 0 -30 0 -3 5058 -2 5057
35 0 35 0 -2 -5057z m-6258 4276 c0 -64 -4 -98 -10 -94 -16 10 -10 195 6 195
2 0 4 -45 4 -101z m103 -9576 c3 -82 11 -183 17 -227 23 -159 87 -336 151
-417 17 -21 27 -39 22 -39 -20 0 -146 191 -181 276 -18 41 -40 122 -57 209 -9
45 -26 325 -20 335 3 5 19 10 34 10 l28 0 6 -147z m6157 126 c0 -95 -26 -332
-45 -412 -34 -141 -124 -305 -211 -387 -41 -39 -37 -28 14 40 32 42 47 70 85
160 51 121 87 332 87 513 l0 107 35 0 c29 0 35 -4 35 -21z m-5540 -1058 c41
-11 110 -24 153 -30 54 -8 774 -11 2270 -11 2394 0 2272 -3 2482 58 55 16 108
27 119 24 17 -5 17 -6 -5 -23 -29 -22 -138 -62 -234 -86 -66 -17 -203 -18
-2360 -18 l-2290 0 -93 24 c-52 12 -106 29 -120 37 -15 8 -31 14 -37 14 -5 0
-25 9 -44 21 -46 28 -24 42 38 23 25 -8 80 -23 121 -33z m2788 32 c-186 -2
-490 -2 -675 0 -186 1 -34 2 337 2 371 0 523 -1 338 -2z"/>
<path d="M2494 10993 c-6 -32 -10 -60 -8 -62 3 -3 22 5 43 17 21 12 45 22 54
22 19 0 29 38 16 62 -7 13 -21 18 -52 18 l-43 0 -10 -57z m73 21 c8 -20 -13
-42 -27 -28 -12 12 -3 44 11 44 5 0 12 -7 16 -16z"/>
<path d="M2651 11019 c-23 -66 -7 -111 26 -78 8 8 17 7 35 -5 16 -10 28 -12
38 -6 10 7 11 10 3 10 -18 0 -16 30 3 51 12 14 13 22 4 38 -8 16 -20 21 -54
21 -40 0 -45 -3 -55 -31z m77 -12 c3 -12 -4 -17 -22 -17 -28 0 -33 9 -14 28
15 15 32 10 36 -11z"/>
<path d="M2817 11013 c-3 -21 -9 -48 -13 -60 -6 -22 -4 -23 47 -22 35 1 46 3
31 7 -30 9 -33 26 -4 30 27 4 29 18 2 25 -28 7 -15 37 16 37 13 0 24 5 24 10
0 6 -22 10 -49 10 -48 0 -48 0 -54 -37z"/>
<path d="M2960 11006 c0 -24 -3 -51 -6 -60 -9 -23 19 -20 41 4 10 11 24 20 32
20 7 0 13 5 13 10 0 6 -9 10 -20 10 -31 0 -23 28 10 35 47 10 35 25 -20 25
l-50 0 0 -44z"/>
<path d="M3096 11013 c-3 -21 -9 -48 -12 -60 -6 -22 -4 -23 47 -22 35 1 46 3
31 7 -30 9 -33 26 -4 30 28 4 29 18 1 25 -25 7 -20 31 7 35 44 8 36 22 -13 22
l-50 0 -7 -37z"/>
<path d="M3240 11013 c0 -21 -3 -48 -6 -60 -5 -19 -2 -23 15 -23 16 0 21 6 21
29 0 16 3 43 6 60 6 27 4 31 -15 31 -18 0 -21 -6 -21 -37z"/>
<path d="M3328 11031 c16 -14 22 -30 22 -60 0 -28 4 -41 14 -41 16 0 26 21 26
53 0 12 12 31 28 44 l27 22 -70 0 c-70 0 -70 0 -47 -18z"/>
<path d="M3470 11016 c0 -19 -3 -41 -6 -49 -10 -27 25 -49 65 -42 44 8 41 6
50 47 5 18 11 43 15 56 6 17 4 22 -11 22 -14 0 -23 -14 -34 -52 -21 -72 -44
-72 -44 0 0 43 -3 52 -17 52 -14 0 -18 -8 -18 -34z"/>
<path d="M3635 11038 c-2 -7 -5 -34 -7 -60 -2 -38 0 -48 12 -48 9 0 21 5 27
11 8 8 18 6 35 -5 27 -18 44 -11 27 11 -9 10 -7 19 5 38 10 15 14 34 11 45 -5
16 -16 20 -56 20 -31 0 -51 -5 -54 -12z m72 -24 c7 -18 -17 -38 -31 -24 -11
11 -1 40 14 40 6 0 13 -7 17 -16z"/>
<path d="M3834 11038 c-5 -7 -19 -34 -31 -60 -20 -44 -21 -48 -5 -48 10 0 23
5 30 12 9 9 18 9 37 0 42 -19 58 -16 50 11 -4 12 -10 38 -13 57 -6 28 -12 36
-34 38 -14 2 -30 -3 -34 -10z m36 -53 c0 -8 -7 -15 -15 -15 -16 0 -20 12 -8
23 11 12 23 8 23 -8z"/>
<path d="M4026 11038 c-3 -7 -7 -34 -11 -60 -6 -44 -4 -48 17 -53 41 -9 92 9
108 38 13 24 13 30 0 55 -13 23 -23 27 -63 30 -32 2 -49 -1 -51 -10z m74 -24
c19 -22 1 -69 -25 -69 -16 0 -20 6 -18 29 4 57 19 70 43 40z"/>
<path d="M4195 11038 c-2 -7 -6 -34 -10 -60 l-6 -48 53 1 c41 1 46 3 24 8 -34
7 -37 24 -6 29 23 4 27 22 4 22 -24 0 -12 35 14 38 40 6 23 22 -23 22 -28 0
-47 -5 -50 -12z"/>
<path d="M4897 10543 c-15 -14 27 -43 63 -43 46 0 55 8 33 32 -16 18 -82 26
-96 11z"/>
<path d="M4630 10501 c0 -5 7 -11 15 -15 8 -3 15 -1 15 3 0 5 -7 11 -15 15 -8
3 -15 1 -15 -3z"/>
<path d="M4770 10498 c0 -22 -18 -32 -34 -19 -7 6 -16 8 -19 4 -12 -11 -8 -23
7 -23 8 0 16 -6 19 -12 3 -10 9 -10 26 0 11 6 29 12 40 12 26 0 51 10 51 21 0
5 -15 9 -33 9 -18 0 -38 5 -45 12 -9 9 -12 8 -12 -4z"/>
<path d="M4937 10430 c-21 -10 -69 -43 -105 -73 -61 -48 -143 -87 -186 -87 -9
0 -16 -7 -16 -15 0 -12 18 -15 100 -15 55 0 108 4 118 9 9 4 38 18 64 29 55
25 88 65 104 127 11 45 11 45 -15 45 -14 -1 -43 -9 -64 -20z"/>
<path d="M3846 10275 c4 -8 8 -15 10 -15 2 0 4 7 4 15 0 8 -4 15 -10 15 -5 0
-7 -7 -4 -15z"/>
<path d="M3120 10090 c0 -19 5 -30 14 -30 9 0 12 7 9 20 -6 22 7 26 25 8 9 -9
12 -8 12 4 0 16 -20 28 -46 28 -9 0 -14 -11 -14 -30z"/>
<path d="M3222 10108 c-15 -15 -16 -48 -1 -48 5 0 8 4 5 9 -11 18 6 42 25 36
11 -4 19 -2 19 4 0 15 -33 14 -48 -1z"/>
<path d="M3326 10103 c-3 -10 -9 -24 -12 -30 -4 -9 4 -13 25 -13 31 0 42 14
19 24 -7 3 -4 4 7 3 12 -1 20 4 20 13 0 23 -51 25 -59 3z"/>
<path d="M3624 10109 c-3 -6 -19 -9 -35 -5 -26 5 -29 3 -29 -19 0 -22 2 -24
25 -13 19 8 28 8 40 -2 13 -11 15 -8 15 19 0 33 -4 38 -16 20z"/>
<path d="M3705 10098 c6 -17 4 -20 -9 -15 -10 4 -16 1 -16 -8 0 -10 10 -15 30
-15 34 0 34 -1 20 34 -12 32 -34 35 -25 4z"/>
<path d="M3820 10100 c-14 -26 -4 -60 18 -59 11 0 12 3 5 6 -19 7 -16 50 5 62
16 10 16 10 0 11 -10 0 -22 -9 -28 -20z"/>
<path d="M3912 10090 c0 -19 2 -27 5 -17 2 9 2 25 0 35 -3 9 -5 1 -5 -18z"/>
<path d="M3954 10106 c-8 -20 3 -66 15 -66 5 0 7 9 4 20 -3 11 -2 27 1 36 5
13 9 14 21 4 7 -6 11 -18 8 -26 -3 -8 0 -14 7 -14 6 0 10 11 8 28 -2 21 -9 28
-31 30 -18 2 -29 -2 -33 -12z"/>
<path d="M4066 10089 c-9 -18 -16 -33 -16 -34 0 -1 13 0 29 3 25 3 29 8 27 30
-4 38 -22 38 -40 1z"/>
<path d="M4164 10106 c-8 -22 -1 -59 14 -64 9 -3 10 2 3 21 -12 30 5 53 26 36
10 -9 13 -8 13 5 0 20 -48 22 -56 2z"/>
<path d="M4272 10108 c-17 -17 -15 -55 4 -62 27 -10 39 -7 20 7 -16 12 -16 14
-2 26 9 8 16 20 16 27 0 17 -22 18 -38 2z"/>
<path d="M4394 10106 c-9 -22 -1 -29 40 -33 27 -3 35 1 39 16 6 26 -1 33 -25
20 -14 -7 -23 -7 -34 1 -11 10 -15 9 -20 -4z"/>
<path d="M4512 10083 c2 -20 8 -38 14 -40 7 -2 10 6 7 21 -4 18 0 28 11 32 25
9 19 24 -10 24 -23 0 -25 -3 -22 -37z"/>
<path d="M4797 10113 c-4 -3 -7 -18 -6 -32 l1 -26 7 25 c5 18 13 24 30 23 13
-2 20 1 16 7 -7 11 -38 13 -48 3z"/>
<path d="M4905 10105 c-3 -8 -7 -22 -10 -30 -3 -11 3 -15 20 -15 14 0 25 5 25
10 0 6 -5 10 -11 10 -5 0 -7 5 -4 10 5 8 11 7 21 -1 11 -9 14 -8 14 4 0 26
-48 37 -55 12z"/>
<path d="M3516 10095 c4 -8 8 -15 10 -15 2 0 4 7 4 15 0 8 -4 15 -10 15 -5 0
-7 -7 -4 -15z"/>
<path d="M4670 10085 c0 -14 5 -25 10 -25 6 0 10 5 10 10 0 6 7 10 15 10 8 0
15 -8 15 -17 0 -15 2 -14 15 3 23 30 20 47 -6 33 -15 -8 -24 -8 -32 0 -18 18
-27 13 -27 -14z"/>
<path d="M3478 10043 c7 -3 16 -2 19 1 4 3 -2 6 -13 5 -11 0 -14 -3 -6 -6z"/>
<path d="M1667 9574 c-14 -15 -6 -34 14 -34 14 0 19 5 17 17 -3 18 -20 27 -31
17z"/>
<path d="M547 9563 c-11 -11 -8 -201 3 -208 18 -11 40 15 40 46 0 40 20 36 52
-11 26 -38 58 -53 58 -29 0 7 -10 27 -21 46 -20 31 -20 35 -5 52 9 10 16 32
16 50 0 27 -5 34 -35 47 -36 15 -97 19 -108 7z m93 -62 c0 -10 -9 -21 -19 -24
-24 -6 -31 0 -31 25 0 13 7 18 25 18 18 0 25 -5 25 -19z"/>
<path d="M2449 9519 c-16 -23 -19 -33 -10 -42 6 -6 11 -28 11 -50 0 -57 14
-77 55 -77 25 0 35 4 35 16 0 9 -9 18 -20 21 -16 4 -20 14 -20 45 0 31 4 41
20 45 26 7 26 33 1 40 -11 3 -22 11 -25 19 -8 22 -23 17 -47 -17z"/>
<path d="M5009 9543 c-10 -2 -19 -19 -23 -41 -3 -20 -9 -52 -12 -69 -7 -39 11
-46 20 -8 4 17 16 27 39 33 l32 9 -27 11 c-33 14 -28 42 7 42 32 0 40 16 12
24 -12 3 -24 5 -27 5 -3 -1 -12 -3 -21 -6z"/>
<path d="M5110 9529 c0 -5 5 -7 10 -4 6 3 10 8 10 11 0 2 -4 4 -10 4 -5 0 -10
-5 -10 -11z"/>
<path d="M5151 9477 c-14 -80 -14 -82 3 -68 8 7 17 31 21 54 4 23 9 50 11 60
3 10 0 17 -9 17 -10 0 -18 -19 -26 -63z"/>
<path d="M5218 9507 c-17 -31 -21 -87 -7 -103 19 -23 29 -16 23 15 -4 17 0 41
10 59 20 38 20 38 1 46 -9 3 -19 -3 -27 -17z"/>
<path d="M756 9494 c-36 -37 -36 -94 0 -123 32 -25 109 -29 117 -7 8 20 -2 26
-45 26 -26 0 -38 4 -38 14 0 11 14 16 48 18 40 3 47 6 50 25 4 30 -42 73 -78
73 -16 0 -38 -11 -54 -26z m79 -24 c4 -6 -7 -10 -25 -10 -18 0 -29 4 -25 10 3
6 15 10 25 10 10 0 22 -4 25 -10z"/>
<path d="M942 9504 c-18 -12 -22 -25 -22 -68 0 -66 22 -90 74 -84 34 4 35 3
38 -32 2 -27 7 -35 23 -35 19 0 20 8 23 105 2 89 0 107 -14 117 -12 9 -21 10
-30 2 -8 -7 -14 -7 -19 1 -9 15 -47 12 -73 -6z m77 -38 c7 -8 11 -27 9 -43 -2
-22 -9 -29 -30 -31 -26 -3 -28 -1 -28 36 0 21 3 42 7 45 11 11 30 8 42 -7z"/>
<path d="M1131 9501 c-16 -29 -13 -103 5 -129 14 -20 22 -22 77 -19 l62 3 3
76 c2 60 0 77 -12 81 -21 8 -30 -9 -36 -68 -5 -45 -7 -50 -30 -50 -23 0 -25 4
-30 59 -5 62 -21 81 -39 47z"/>
<path d="M1357 9509 c-45 -26 -51 -96 -11 -140 20 -23 96 -26 113 -6 15 19 4
27 -41 27 -27 0 -38 4 -38 15 0 11 12 15 45 15 43 0 45 1 45 30 0 54 -64 88
-113 59z m68 -39 c3 -5 -1 -10 -9 -10 -9 0 -19 0 -23 -1 -4 0 -9 4 -11 10 -5
14 35 14 43 1z"/>
<path d="M1527 9513 c-4 -3 -7 -42 -7 -85 0 -71 2 -78 20 -78 17 0 20 7 20 50
0 46 3 53 30 68 45 26 35 66 -10 42 -15 -8 -25 -8 -34 -1 -7 6 -16 8 -19 4z"/>
<path d="M1667 9513 c-4 -3 -7 -42 -7 -85 0 -71 2 -78 20 -78 18 0 20 7 20 85
0 64 -3 85 -13 85 -8 0 -17 -3 -20 -7z"/>
<path d="M1753 9504 c-2 -6 -3 -42 -1 -80 3 -61 5 -69 23 -69 17 0 21 8 25 60
4 52 8 60 25 60 17 0 21 -8 25 -52 6 -54 20 -80 39 -69 6 4 11 22 12 39 2 54
13 82 34 82 17 0 21 -9 25 -60 4 -52 8 -60 25 -60 18 0 20 8 23 64 4 78 -15
106 -63 96 -16 -3 -39 -5 -50 -5 -115 5 -138 4 -142 -6z"/>
<path d="M2076 9499 c-36 -28 -37 -95 -2 -128 30 -28 109 -27 114 2 3 14 -4
17 -43 17 -61 0 -56 23 6 30 39 4 44 8 47 32 4 33 -31 68 -69 68 -14 0 -38 -9
-53 -21z m69 -29 c4 -6 -5 -10 -20 -10 -15 0 -24 4 -20 10 3 6 12 10 20 10 8
0 17 -4 20 -10z"/>
<path d="M2306 9512 c-3 -5 -19 -7 -36 -4 l-30 4 0 -76 c0 -61 3 -78 16 -83
22 -8 34 14 34 69 0 38 4 48 20 53 31 10 40 -2 40 -53 0 -55 11 -77 34 -69 24
10 23 128 -2 150 -19 18 -67 23 -76 9z"/>
<path d="M2600 9500 c-35 -27 -36 -103 -1 -131 28 -23 78 -25 107 -4 40 27 38
110 -4 141 -25 19 -73 16 -102 -6z m81 -44 c14 -30 -3 -66 -31 -66 -24 0 -36
40 -20 69 14 28 38 27 51 -3z"/>
<path d="M2788 9509 c-11 -6 -18 -22 -18 -40 0 -24 7 -32 35 -46 43 -20 40
-39 -4 -35 -27 3 -32 1 -29 -15 2 -13 14 -19 40 -21 52 -4 78 12 78 49 0 24
-7 32 -35 46 -43 21 -45 33 -4 33 24 0 30 4 27 18 -4 20 -63 28 -90 11z"/>
<path d="M5295 9495 c-2 -5 -6 -27 -9 -48 -6 -47 14 -46 28 1 5 18 15 32 22
32 8 0 14 6 14 13 0 14 -51 17 -55 2z"/>
<path d="M5410 9503 c-38 -14 -51 -62 -25 -97 20 -26 60 -14 80 24 19 36 19
45 -1 64 -16 16 -28 18 -54 9z m40 -42 c-1 -17 -23 -51 -33 -51 -4 0 -11 8
-16 18 -7 14 -6 25 5 40 16 24 44 19 44 -7z"/>
<path d="M5090 9474 c-13 -32 -13 -61 0 -69 5 -3 12 6 15 20 3 14 7 36 10 50
7 33 -13 32 -25 -1z"/>
<path d="M1496 8964 c-8 -20 -8 -162 0 -191 4 -14 14 -23 25 -23 18 0 19 9 19
115 0 106 -1 115 -19 115 -10 0 -22 -7 -25 -16z"/>
<path d="M2872 8967 c-14 -16 -6 -27 20 -27 13 0 18 6 16 17 -4 22 -22 27 -36
10z"/>
<path d="M3157 8974 c-9 -9 -9 -186 -1 -208 9 -23 33 -19 39 7 3 12 5 62 3
112 -2 72 -6 90 -18 93 -9 1 -19 0 -23 -4z"/>
<path d="M3251 8966 c-15 -18 1 -30 30 -21 16 5 18 10 8 21 -15 18 -23 18 -38
0z"/>
<path d="M3790 8961 c0 -38 -9 -47 -44 -43 -43 5 -76 -33 -76 -88 0 -55 30
-78 103 -77 l57 1 0 113 c0 106 -1 113 -20 113 -13 0 -20 -7 -20 -19z m-10
-102 c7 -11 9 -32 6 -46 -5 -19 -12 -24 -34 -21 -21 2 -28 9 -30 31 -6 51 37
77 58 36z"/>
<path d="M581 8956 c-33 -18 -50 -53 -51 -102 0 -62 42 -104 103 -104 32 0 47
5 51 16 9 24 9 24 -39 24 -50 0 -65 16 -65 69 0 43 32 73 73 69 26 -2 32 1 32
17 0 16 -7 20 -40 22 -22 2 -51 -3 -64 -11z"/>
<path d="M2004 8957 c-3 -8 -3 -56 -2 -108 l3 -94 58 -3 c52 -3 57 -1 57 18 0
16 -6 20 -35 20 -31 0 -35 3 -35 25 0 18 5 25 19 25 55 0 71 37 19 42 -47 4
-51 35 -6 40 25 2 34 8 36 26 3 21 0 22 -53 22 -37 0 -57 -4 -61 -13z"/>
<path d="M1603 8928 c-18 -20 -20 -32 -16 -83 6 -68 24 -95 63 -95 38 0 47 28
15 40 -21 8 -25 16 -25 50 0 33 3 40 20 40 13 0 20 7 20 20 0 12 -7 20 -16 20
-9 0 -22 7 -28 16 -10 13 -14 12 -33 -8z"/>
<path d="M752 8900 c-16 -15 -22 -32 -22 -65 0 -33 6 -50 22 -65 51 -47 138
-7 138 63 0 72 -88 114 -138 67z m81 -41 c5 -9 7 -28 3 -43 -5 -21 -12 -27
-29 -24 -23 3 -35 43 -23 75 7 18 35 14 49 -8z"/>
<path d="M930 8901 c-14 -28 -12 -114 3 -136 19 -25 37 -11 37 30 0 50 16 85
39 85 20 0 27 -18 33 -95 4 -42 34 -46 43 -5 9 42 -4 112 -24 127 -20 15 -63
17 -78 2 -8 -8 -13 -8 -17 0 -11 17 -24 13 -36 -8z"/>
<path d="M1136 8901 c-24 -27 -13 -58 30 -78 43 -21 43 -33 1 -33 -38 0 -48
-6 -40 -26 7 -20 87 -18 107 2 27 27 20 59 -19 80 -43 23 -45 34 -4 34 24 0
30 4 27 18 -5 26 -79 29 -102 3z"/>
<path d="M1290 8845 c0 -62 3 -76 19 -84 23 -13 124 -10 133 4 11 14 10 127
-1 144 -17 27 -41 4 -41 -39 0 -51 -15 -80 -40 -80 -17 0 -20 7 -20 49 0 62
-7 81 -31 81 -17 0 -19 -8 -19 -75z"/>
<path d="M1747 8913 c-18 -17 -5 -33 27 -33 51 0 53 -17 4 -27 -31 -6 -47 -16
-57 -35 -14 -24 -14 -28 3 -47 16 -17 29 -21 75 -19 31 2 59 8 63 13 4 6 8 33
8 61 0 67 -22 94 -77 94 -22 0 -43 -3 -46 -7z m68 -103 c0 -9 -11 -16 -27 -18
-31 -4 -34 2 -15 23 15 18 42 15 42 -5z"/>
<path d="M2177 8902 c-26 -28 -21 -51 18 -73 42 -25 45 -39 7 -39 -34 0 -43
-7 -35 -26 8 -22 79 -18 103 6 11 11 20 25 20 30 0 14 -46 60 -60 60 -5 0 -10
5 -10 10 0 6 14 10 31 10 24 0 30 4 27 18 -5 26 -78 29 -101 4z"/>
<path d="M2330 8798 c0 -111 1 -118 20 -118 14 0 20 7 20 24 0 41 9 53 34 49
59 -12 98 55 71 120 -17 40 -16 40 -92 41 l-53 1 0 -117z m95 37 c0 -33 -4
-41 -21 -43 -16 -2 -23 3 -27 20 -10 39 3 69 27 66 17 -2 21 -10 21 -43z"/>
<path d="M2535 8895 c-56 -55 -16 -145 63 -145 38 0 69 19 55 33 -3 4 -24 7
-45 7 -27 0 -38 4 -38 15 0 10 10 15 34 15 19 0 41 3 50 6 43 17 -9 94 -64 94
-19 0 -40 -9 -55 -25z m80 -25 c4 -6 -5 -10 -19 -10 -14 0 -26 5 -26 10 0 6 9
10 19 10 11 0 23 -4 26 -10z"/>
<path d="M2722 8897 c-31 -33 -31 -109 0 -131 28 -20 82 -21 98 -1 14 16 6 21
-40 27 -22 3 -25 8 -25 43 0 38 2 40 33 43 47 5 40 36 -8 40 -27 2 -41 -3 -58
-21z"/>
<path d="M2866 8904 c-9 -24 -7 -127 3 -143 5 -8 16 -11 25 -8 13 5 16 22 16
87 0 72 -2 80 -19 80 -10 0 -22 -7 -25 -16z"/>
<path d="M2987 8913 c-18 -18 -5 -33 29 -33 44 0 42 -23 -2 -28 -56 -7 -82
-53 -48 -86 17 -18 69 -22 79 -6 4 7 12 7 24 0 26 -14 31 -4 31 65 0 47 -4 66
-18 78 -18 17 -82 23 -95 10z m61 -106 c3 -12 -4 -17 -22 -17 -28 0 -33 9 -14
28 15 15 32 10 36 -11z"/>
<path d="M3257 8913 c-11 -11 -8 -151 3 -158 23 -14 40 17 40 75 0 32 -3 65
-6 74 -6 16 -26 21 -37 9z"/>
<path d="M3337 8913 c-17 -16 -5 -33 23 -33 37 0 37 -5 0 -54 -48 -64 -42 -76
36 -76 57 0 65 2 62 18 -2 10 -14 18 -31 20 -35 4 -34 14 4 62 43 53 35 70
-34 70 -30 0 -57 -3 -60 -7z"/>
<path d="M3517 8913 c-18 -18 -5 -33 29 -33 45 0 42 -24 -4 -28 -38 -4 -64
-37 -56 -69 8 -28 26 -34 89 -29 l50 4 3 65 c2 49 -1 69 -13 81 -16 16 -85 22
-98 9z m63 -103 c0 -13 -7 -20 -18 -20 -26 0 -34 11 -21 27 17 20 39 16 39 -7z"/>
<path d="M3901 8907 c-15 -19 -4 -27 37 -27 44 0 38 -23 -9 -31 -46 -7 -59
-16 -59 -40 0 -49 17 -60 83 -55 l62 4 3 62 c2 48 -1 67 -14 81 -20 22 -86 26
-103 6z m69 -97 c0 -15 -7 -20 -25 -20 -27 0 -32 9 -13 28 18 18 38 14 38 -8z"/>
<path d="M1476 5758 c-3 -7 -6 -22 -8 -33 -3 -16 -10 -19 -36 -17 -51 5 -72
-20 -72 -83 0 -73 37 -103 90 -75 11 6 21 6 24 1 3 -5 15 -7 26 -4 19 5 20 12
18 112 -3 92 -5 106 -21 109 -9 2 -19 -2 -21 -10z m-8 -129 c2 -26 -2 -38 -12
-42 -36 -14 -64 22 -51 64 5 15 14 19 33 17 23 -3 27 -8 30 -39z"/>
<path d="M1567 5763 c-3 -5 -2 -15 3 -22 10 -17 43 -6 38 12 -6 15 -34 22 -41
10z"/>
<path d="M496 5744 c-12 -31 -7 -192 7 -197 21 -7 37 4 37 27 0 30 10 41 50
52 40 11 59 41 52 83 -5 35 -35 51 -96 51 -31 0 -46 -5 -50 -16z m92 -51 c-3
-31 -34 -44 -44 -19 -9 24 3 46 26 46 17 0 21 -5 18 -27z"/>
<path d="M3192 5653 l3 -108 39 -3 c51 -4 86 5 86 22 0 16 -21 26 -56 26 -39
0 -32 37 9 48 17 4 32 15 32 23 0 9 -12 15 -32 17 -25 2 -33 8 -33 23 0 15 7
19 33 19 38 0 48 6 40 26 -4 10 -23 14 -64 14 l-60 0 3 -107z"/>
<path d="M2357 5715 c-14 -19 -15 -29 -7 -44 5 -11 10 -38 10 -60 0 -45 20
-71 55 -71 36 0 42 20 12 42 -40 29 -32 83 15 101 9 3 3 14 -17 31 -37 31 -45
32 -68 1z"/>
<path d="M685 5692 c-3 -8 -5 -42 -5 -77 0 -48 4 -64 16 -69 26 -10 34 2 34
49 0 46 15 69 51 80 34 11 6 29 -46 30 -29 0 -46 -4 -50 -13z"/>
<path d="M841 5691 c-32 -32 -29 -103 5 -130 82 -65 173 30 118 123 -7 12 -27
20 -56 23 -37 4 -50 1 -67 -16z m85 -48 c8 -32 -6 -58 -32 -58 -20 0 -31 41
-20 71 10 25 45 16 52 -13z"/>
<path d="M1036 5689 c-21 -16 -26 -29 -26 -64 0 -35 5 -48 26 -64 32 -25 76
-27 95 -5 10 13 10 17 -1 24 -8 5 -18 6 -22 4 -5 -3 -17 -2 -28 1 -15 5 -20
15 -20 40 0 37 8 45 46 50 30 3 38 10 29 24 -11 18 -71 12 -99 -10z"/>
<path d="M1196 5689 c-32 -25 -36 -84 -7 -120 24 -30 113 -35 119 -6 3 13 -3
17 -26 17 -17 0 -37 3 -46 6 -30 12 -16 24 28 24 56 0 73 18 56 59 -18 45 -80
55 -124 20z m69 -18 c8 -14 -13 -24 -33 -16 -14 5 -14 7 -2 15 19 12 27 12 35
1z"/>
<path d="M1565 5688 c-3 -13 -5 -51 -3 -83 3 -52 6 -60 23 -60 18 0 20 7 20
80 0 67 -3 80 -17 83 -11 2 -19 -5 -23 -20z"/>
<path d="M1663 5694 c-2 -6 -3 -42 -1 -80 3 -61 5 -69 23 -69 17 0 21 8 25 60
4 52 8 60 25 60 17 0 20 -8 23 -55 3 -55 14 -72 39 -63 8 3 13 22 13 52 0 55
11 74 36 69 15 -2 20 -15 24 -63 4 -52 8 -60 25 -60 18 0 20 7 20 72 0 39 -4
75 -8 80 -13 13 -239 10 -244 -3z"/>
<path d="M1987 5699 c-25 -15 -37 -51 -30 -92 7 -46 53 -73 107 -63 27 5 36
12 34 23 -2 12 -14 17 -42 17 -22 1 -41 7 -43 14 -3 8 7 12 30 12 51 0 67 9
67 36 0 51 -72 82 -123 53z m64 -34 c0 -5 -9 -11 -21 -13 -20 -3 -27 8 -13 22
10 9 34 3 34 -9z"/>
<path d="M2187 5703 l-38 -4 3 -77 c2 -60 6 -77 18 -77 11 0 17 15 21 53 8 64
23 86 50 72 14 -8 19 -24 21 -68 3 -49 6 -57 23 -57 17 0 20 8 23 58 2 41 -2
66 -13 83 -16 25 -23 26 -108 17z"/>
<path d="M2505 5685 c-68 -67 13 -179 97 -134 31 17 50 71 37 108 -20 56 -91
70 -134 26z m80 -60 c0 -33 -4 -40 -19 -40 -26 0 -40 26 -32 59 5 21 12 27 29
24 18 -3 22 -9 22 -43z"/>
<path d="M2693 5703 c-11 -8 -16 -26 -14 -54 0 -8 17 -23 36 -32 43 -20 39
-46 -6 -39 -26 4 -30 2 -27 -14 4 -25 61 -31 94 -9 39 25 32 61 -16 85 -44 22
-45 43 -2 38 19 -2 27 2 27 12 0 17 -71 26 -92 13z"/>
<path d="M2950 5703 c-42 -17 -54 -93 -21 -134 24 -30 113 -35 119 -6 3 13 -3
17 -26 17 -17 0 -37 3 -46 6 -28 11 -17 24 20 24 72 0 93 32 49 75 -23 24 -61
31 -95 18z m58 -32 c11 -7 10 -10 -3 -15 -20 -7 -38 1 -30 15 7 11 16 11 33 0z"/>
<path d="M3355 5700 c-3 -6 3 -23 14 -39 l21 -29 -21 -36 c-32 -55 -9 -76 34
-30 24 25 25 25 38 7 19 -26 34 -34 53 -27 13 5 11 12 -11 44 l-25 39 21 35
c27 43 11 57 -29 28 -28 -21 -28 -21 -45 -1 -20 21 -40 25 -50 9z"/>
<path d="M3560 5695 c-13 -16 -11 -17 30 -19 37 -2 35 -20 -2 -29 -44 -12 -58
-25 -58 -53 0 -36 28 -57 64 -49 17 4 43 7 59 6 27 -1 27 -1 27 63 0 45 -5 69
-16 80 -20 20 -88 21 -104 1z m68 -93 c5 -17 -27 -27 -41 -13 -9 9 -8 14 3 21
18 11 32 8 38 -8z"/>
<path d="M3730 5696 c-6 -6 -10 -40 -10 -77 0 -58 3 -67 19 -72 26 -6 31 0 31
39 0 49 16 84 39 84 18 0 20 -8 23 -62 3 -55 5 -63 23 -63 17 0 21 8 25 58 9
99 60 95 60 -4 0 -47 11 -61 38 -51 17 6 16 113 -2 138 -13 17 -27 19 -125 19
-61 1 -116 -4 -121 -9z"/>
<path d="M4062 5703 c-17 -6 -42 -57 -42 -83 0 -32 53 -80 88 -80 71 0 89 37
20 42 -60 4 -61 26 -1 30 44 3 48 5 51 30 6 50 -59 84 -116 61z m66 -40 c2 -8
-5 -13 -17 -13 -21 0 -35 13 -24 24 10 10 36 3 41 -11z"/>
<path d="M4226 5697 c-28 -20 -17 -59 21 -77 44 -20 42 -40 -2 -40 -23 0 -35
-5 -35 -14 0 -30 76 -36 110 -8 31 25 21 61 -24 86 -35 19 -39 42 -6 33 10 -2
24 -1 31 4 12 8 11 11 -1 19 -21 14 -73 12 -94 -3z"/>
<path d="M647 2804 c-16 -16 -6 -34 19 -34 19 0 25 5 22 17 -3 19 -29 29 -41
17z"/>
<path d="M950 2795 c-21 -25 -1 -37 30 -18 16 9 27 20 24 25 -8 13 -41 9 -54
-7z"/>
<path d="M1406 2794 c-9 -23 -8 -24 19 -24 28 0 34 24 9 34 -21 8 -21 8 -28
-10z"/>
<path d="M468 2767 c-59 -54 -39 -158 34 -185 30 -12 41 -12 65 0 37 18 32 33
-12 33 -41 0 -62 19 -71 62 -5 26 -1 37 20 58 22 22 32 25 62 19 32 -6 36 -4
32 12 -2 15 -14 20 -54 22 -42 2 -54 -1 -76 -21z"/>
<path d="M1250 2737 c-28 -14 -39 -59 -20 -82 7 -9 8 -15 0 -20 -5 -3 -10 -15
-10 -26 0 -10 -6 -28 -12 -39 -11 -17 -9 -23 10 -42 40 -41 135 -23 148 27 9
36 -12 55 -57 55 -22 0 -39 5 -39 10 0 6 11 10 23 10 29 0 55 27 67 70 5 19 9
34 7 35 -13 11 -98 12 -117 2z m50 -32 c10 -12 10 -18 0 -30 -7 -8 -16 -15
-20 -15 -4 0 -10 7 -14 15 -6 17 2 45 14 45 4 0 13 -7 20 -15z m12 -136 c17
-9 18 -13 7 -20 -19 -12 -66 -11 -74 0 -3 6 3 14 12 20 23 13 30 13 55 0z"/>
<path d="M1533 2740 c-28 -11 -43 -40 -43 -82 0 -63 49 -99 104 -78 37 14 32
30 -9 30 -28 0 -36 4 -41 24 -10 43 -1 61 33 64 41 4 51 29 17 42 -29 12 -32
12 -61 0z"/>
<path d="M1693 2740 c-27 -11 -43 -40 -43 -80 0 -68 51 -102 113 -76 66 27 66
120 1 151 -36 17 -40 17 -71 5z m62 -79 c0 -40 -29 -66 -45 -41 -11 18 -13 64
-3 74 4 4 16 6 28 4 16 -2 20 -10 20 -37z"/>
<path d="M1870 2737 c-37 -19 -33 -56 10 -85 40 -26 38 -37 -4 -38 -37 0 -45
-19 -15 -34 30 -16 95 3 104 30 9 27 -11 59 -40 66 -14 3 -25 13 -25 21 0 11
7 13 25 9 18 -5 27 -2 31 9 4 9 4 18 2 20 -12 13 -66 14 -88 2z"/>
<path d="M642 2663 c3 -70 5 -78 23 -78 18 0 20 8 23 78 3 77 3 77 -23 77 -26
0 -26 0 -23 -77z"/>
<path d="M736 2723 c-8 -20 -8 -107 0 -127 3 -9 15 -16 25 -16 16 0 19 7 19
43 0 48 15 74 45 79 11 2 21 11 23 20 3 14 -6 16 -52 16 -38 0 -57 -5 -60 -15z"/>
<path d="M874 2705 c-15 -82 34 -153 86 -125 11 6 30 8 42 4 27 -8 38 10 38
66 0 64 -9 90 -31 90 -16 0 -19 -8 -19 -49 0 -47 -17 -81 -40 -81 -17 0 -30
38 -30 84 0 39 -3 46 -20 46 -14 0 -21 -9 -26 -35z"/>
<path d="M1082 2662 c3 -69 5 -77 23 -77 17 0 21 8 23 45 4 50 16 70 43 70 12
0 19 7 19 19 0 16 -8 18 -55 19 l-56 0 3 -76z"/>
<path d="M1402 2663 c3 -70 5 -78 23 -78 18 0 20 8 23 78 3 77 3 77 -23 77
-26 0 -26 0 -23 -77z"/>
</g>
</svg>
