<?xml version="1.0" encoding="UTF-8"?>
<!DOCTYPE svg PUBLIC "-//W3C//DTD SVG 1.1//EN" "http://www.w3.org/Graphics/SVG/1.1/DTD/svg11.dtd">
<!-- Creator: CorelDRAW 2020 (64 Bit) -->
<svg xmlns="http://www.w3.org/2000/svg" xml:space="preserve" width="162.56mm" height="91.4401mm" version="1.1" style="shape-rendering:geometricPrecision; text-rendering:geometricPrecision; image-rendering:optimizeQuality; fill-rule:evenodd; clip-rule:evenodd"
viewBox="0 0 19266.43 10837.38"
 xmlns:xlink="http://www.w3.org/1999/xlink"
 xmlns:xodm="http://www.corel.com/coreldraw/odm/2003">
 <defs>
  <style type="text/css">
   <![CDATA[
    .fil2 {fill:none}
    .fil0 {fill:#D19500}
    .fil1 {fill:#FEDF46}
   ]]>
  </style>
   <clipPath id="id0">
    <path d="M-0 0l19266.43 0 0 10837.38 -19266.43 0 0 -10837.38z"/>
   </clipPath>
    <clipPath id="id1">
     <path d="M-0 0l19266.43 0 0 10837.38 -19266.43 0 0 -10837.38z"/>
    </clipPath>
    <clipPath id="id2">
     <path d="M-0 0l19266.43 0 0 10837.38 -19266.43 0 0 -10837.38z"/>
    </clipPath>
     <mask id="id3">
  <radialGradient id="id4" gradientUnits="userSpaceOnUse" cx="2340.88" cy="5980.57" r="12038.73" fx="2340.88" fy="5980.57">
   <stop offset="0" style="stop-opacity:1; stop-color:white"/>
   <stop offset="1" style="stop-opacity:0; stop-color:white"/>
  </radialGradient>
      <rect style="fill:url(#id4)" x="-11.85" y="-11.85" width="19290.13" height="10861.08"/>
     </mask>
 </defs>
 <g id="Camada_x0020_1">
  <metadata id="CorelCorpID_0Corel-Layer"/>
  <polygon class="fil0" points="-0,0 19266.43,0 19266.43,10837.38 -0,10837.38 "/>
  <g style="clip-path:url(#id0)">
   <g id="_2201018662656">
   </g>
   <g style="clip-path:url(#id1)">
    <image x="-462.28" y="-2508.65" width="20481.29" height="13629.35" xlink:href="tela amarela gradiente_Images\tela amarela gradiente_ImgID1.png"/>
   </g>
   <g style="clip-path:url(#id2)">
    <polygon class="fil1" style="mask:url(#id3)" points="-0,0 19266.43,0 19266.43,10837.38 -0,10837.38 "/>
   </g>
  </g>
  <polygon class="fil2" points="-0,0 19266.43,0 19266.43,10837.38 -0,10837.38 "/>
 </g>
</svg>
